<svg id="Layer_1" xmlns="http://www.w3.org/2000/svg" viewBox="0 0 1200 400"><style>.st0{fill:#013d5b}.st1{fill:#fff}.st3{fill:#00a3c4}.st5{fill:#00bfe4}.st10,.st9{enable-background:new}.st10{fill:#fff}.st11{fill:#10253f}.st12{fill:#e41a52}</style><path class="st0" d="M-.5.1H1200V400H-.5z"/><path class="st1" d="M331.8 89.9c-1.1 0-2.2-.3-3.1-.8s-1.6-1.3-2.1-2.2c-.5-.9-.7-1.9-.7-3 0-1.2.3-2.2.8-3.2.5-.9 1.3-1.7 2.2-2.2.9-.5 1.9-.8 2.9-.8 1.1 0 2.2.3 3.1.8.9.6 1.6 1.3 2.1 2.2.5.9.7 1.9.7 3 0 1.2-.3 2.2-.8 3.2s-1.3 1.7-2.2 2.2c-.8.5-1.8.8-2.9.8zm0-1c1 0 1.8-.2 2.5-.7.7-.5 1.3-1.1 1.7-1.9.4-.8.6-1.6.6-2.6s-.2-1.9-.7-2.7-1-1.4-1.8-1.8c-.7-.4-1.6-.6-2.4-.6-.9 0-1.8.2-2.5.7-.7.5-1.3 1.1-1.7 1.9-.4.8-.6 1.6-.6 2.6s.2 1.9.7 2.7 1 1.4 1.8 1.8c.8.4 1.6.6 2.4.6zm1.6-1.9l-1.6-2.7h-1.1V87h-.9v-6.5c.7-.1 1.4-.2 1.9-.2.7 0 1.3.2 1.7.5.4.4.6.9.6 1.5 0 1-.5 1.6-1.4 1.9l1.7 2.8h-.9zm-2.7-3.4h.9c.5 0 .9-.1 1.2-.3.3-.2.4-.5.4-1 0-.4-.1-.7-.4-.9s-.7-.3-1.1-.3c-.3 0-.6 0-1 .1v2.4zm-210.2 26.7c-2.5 1.3-5.2 2-8 2-3.9 0-7-1.5-9.2-4.4-2.2-2.9-3.3-7-3.3-12.2s1.1-9.3 3.3-12.2c2.2-2.9 5.3-4.4 9.2-4.4 2.7 0 5.3.7 7.8 2v2.3c-1.4-.7-2.6-1.1-3.8-1.5-1.2-.3-2.4-.5-3.7-.5-3.3 0-5.8 1.2-7.4 3.6-1.7 2.4-2.5 6-2.5 10.6s.8 8.2 2.5 10.6c1.7 2.4 4.1 3.6 7.4 3.6 2.5 0 5.1-.6 7.6-1.9v2.4zm20.4 1.3l-.2-1.6c-2.5 1.5-5.1 2.2-7.5 2.2-2.3 0-4.1-.6-5.4-1.8-1.3-1.2-2-2.9-2-5.1 0-2.3.7-4 2.2-5.2 1.5-1.2 3.7-1.8 6.6-1.8 1.7 0 3.7.2 5.9.6v-3.1c0-3.8-2.1-5.7-6.3-5.7-1.1 0-2.3.2-3.6.5-1.3.3-2.5.7-3.6 1.2v-2.1c1.1-.5 2.3-.9 3.7-1.2 1.4-.3 2.7-.5 3.9-.5 2.8 0 4.9.7 6.3 2 1.4 1.3 2.2 3.3 2.2 5.8v15.6l-2.2.2zm-7.1-1.6c1.1 0 2.2-.2 3.4-.5 1.2-.3 2.3-.8 3.4-1.4v-7.3c-1.9-.4-3.7-.5-5.5-.5-2.3 0-3.9.4-5 1.2-1 .8-1.6 2-1.6 3.7 0 3.3 1.8 4.8 5.3 4.8zm17.2 11.7V88.8l2.3-.2.2 1.6c2.5-1.5 4.8-2.2 6.9-2.2 2.9 0 5.2 1 6.8 3.1s2.5 5 2.5 8.6c0 4-.9 7.1-2.8 9.3s-4.6 3.2-8.1 3.2c-1.8 0-3.5-.2-5.1-.7v9.8l-2.7.4zm9-31.5c-1 0-2 .2-3.1.5s-2.2.8-3.2 1.4v17.3c1.5.5 3.1.7 4.8.7 2.8 0 4.9-.8 6.3-2.5 1.4-1.7 2.1-4.3 2.1-7.8 0-3.1-.6-5.5-1.7-7.1-1.3-1.7-3-2.5-5.2-2.5zm17.6-7.1c-.6 0-1.1-.2-1.4-.5-.4-.4-.6-.9-.6-1.5s.2-1.1.6-1.5c.4-.4.8-.5 1.4-.5.6 0 1.1.2 1.4.5.4.4.6.9.6 1.5s-.2 1.1-.6 1.5c-.3.3-.8.5-1.4.5zm-1.3 28.4V88.9l2.7-.4v23h-2.7zm14.1-20.8v14.6c0 1.6.3 2.7 1 3.5.7.7 1.7 1.1 3 1.1.9 0 1.9-.2 3-.5v2c-1.2.4-2.4.6-3.4.6-2 0-3.6-.6-4.7-1.7s-1.6-2.8-1.6-5.1V90.7h-3.4v-2l3.5-.1.3-5.7 2.3-.3v6h6.7v2.1h-6.7zm25.9 20.9l-.2-1.6c-2.5 1.5-5.1 2.2-7.5 2.2-2.3 0-4.1-.6-5.4-1.8-1.3-1.2-2-2.9-2-5.1 0-2.3.7-4 2.2-5.2 1.5-1.2 3.7-1.8 6.6-1.8 1.7 0 3.7.2 5.9.6v-3.1c0-3.8-2.1-5.7-6.3-5.7-1.1 0-2.3.2-3.6.5-1.3.3-2.5.7-3.6 1.2v-2.1c1.1-.5 2.3-.9 3.7-1.2 1.4-.3 2.7-.5 3.9-.5 2.8 0 4.9.7 6.3 2 1.4 1.3 2.2 3.3 2.2 5.8v15.6l-2.2.2zm-7.1-1.6c1.1 0 2.2-.2 3.4-.5 1.2-.3 2.3-.8 3.4-1.4v-7.3c-1.9-.4-3.7-.5-5.5-.5-2.3 0-3.9.4-5 1.2-1 .8-1.6 2-1.6 3.7 0 3.3 1.8 4.8 5.3 4.8zm17.2 1.5V77.4l2.6-.4v34.5h-2.6zm34.2.7c-4.1 0-7.2-1.4-9.4-4.3s-3.3-7-3.3-12.3c0-5.3 1.1-9.4 3.3-12.3 2.2-2.9 5.3-4.3 9.4-4.3s7.2 1.4 9.4 4.3 3.3 7 3.3 12.3c0 5.3-1.1 9.4-3.3 12.3-2.2 2.9-5.4 4.3-9.4 4.3zm0-2.3c6.5 0 9.8-4.8 9.8-14.3s-3.3-14.3-9.8-14.3c-6.5 0-9.8 4.8-9.8 14.3s3.3 14.3 9.8 14.3zm34.6 1.6V95.8c0-3.7-1.8-5.6-5.5-5.6-1 0-2 .2-3.2.5-1.2.3-2.3.8-3.4 1.4v19.5h-2.7V88.8l2.3-.2.2 1.6c2.6-1.5 5.1-2.2 7.5-2.2 2.4 0 4.2.6 5.6 1.9 1.3 1.3 2 3.1 2 5.4v16.2h-2.8zm26.2-.8c-2 1-4.2 1.5-6.6 1.5-3.4 0-6-1-7.8-3.1-1.8-2.1-2.7-5-2.7-8.9 0-3.8.9-6.8 2.6-9 1.7-2.2 4.1-3.3 7-3.3 2.6 0 4.7.8 6.2 2.5s2.3 4 2.3 6.9c0 1.1-.1 2.1-.3 3.1h-15.2c0 6.3 2.8 9.5 8.2 9.5 2.2 0 4.3-.5 6.3-1.5v2.3zm-7.6-20.6c-2 0-3.7.8-4.9 2.3-1.3 1.5-2 3.6-2 6.1h12.9c.1-.5.1-.9.1-1.3 0-2.2-.5-4-1.6-5.2-1.1-1.3-2.6-1.9-4.5-1.9zm-211 91.7v-44.2c4.6-.9 8.8-1.4 12.6-1.4 6.7 0 11.9 2 15.6 6 3.7 4 5.5 9.6 5.5 16.8 0 7.4-1.8 13-5.5 17-3.7 3.9-9 5.9-16 5.9l-12.2-.1zm12.3-5.1c5 0 8.8-1.4 11.3-4.3s3.7-7.3 3.7-13.2c0-6-1.2-10.5-3.6-13.4-2.4-2.9-6.1-4.3-11.1-4.3-2 0-4.1.2-6.4.6v34.7h6.1zm37.8 5.1v-45.1h6.1v45.1h-6.1zm55.7-1.8c-3.9 1.9-8.1 2.8-12.8 2.8-6.5 0-11.5-2.1-15.1-6.2-3.6-4.1-5.4-9.9-5.4-17.3 0-4.9.8-9.2 2.5-12.7s4-6.2 7-8.1c3-1.8 6.6-2.7 10.8-2.7 4.4 0 8.4.9 12.2 2.8v5.1c-3.8-1.8-7.7-2.8-11.6-2.8-4.7 0-8.3 1.6-10.8 4.7s-3.7 7.7-3.7 13.7c0 6.1 1.2 10.6 3.7 13.7 2.5 3.1 6.1 4.6 10.9 4.6 2.2 0 4.3-.3 6.3-.8v-14.1h-5l.7-5.1h10.1V180zm16.5 1.8v-45.1h6.1v45.1h-6.1zm32.7 0v-40h-12.9v-5.2h31.8v5.2h-12.9v40h-6zm55.9 0l-3.6-11.2h-18l-3.6 11.2h-6.3l15.3-45.1h7.2l15.3 45.1h-6.3zm-20.1-15.9h14.9l-7.5-23.3-7.4 23.3zm39.6 15.9v-45.1h6.1v40h20.2v5.2h-26.3zM102.8 252v-45.1h26.7v5.2h-20.6v15.5h18v5.2h-18V252h-6.1zm38.4-22.6c0-7.6 1.6-13.4 4.8-17.5 3.2-4 7.8-6.1 13.8-6.1 6 0 10.6 2 13.8 6.1 3.2 4 4.8 9.9 4.8 17.5s-1.6 13.4-4.8 17.5c-3.2 4-7.8 6.1-13.8 6.1-6 0-10.6-2-13.8-6.1-3.2-4-4.8-9.9-4.8-17.5zm6.4 0c0 6.2 1 10.8 3 13.8s5.1 4.5 9.2 4.5 7.2-1.5 9.2-4.5c2-3 3-7.6 3-13.8 0-6.2-1-10.8-3-13.8s-5.1-4.5-9.2-4.5-7.2 1.5-9.2 4.5c-2 3-3 7.7-3 13.8zm71.8 22.6l-10.7-17.9h-7.9V252h-6v-44.2c2-.4 4.2-.8 6.6-1 2.4-.3 4.6-.4 6.3-.4 5.1 0 9.1 1.2 12 3.7 2.9 2.5 4.4 5.9 4.4 10.2 0 3.1-.8 5.8-2.5 8s-4 3.8-7.1 4.7l12 18.9h-7.1zm-12.1-40.7c-2 0-4.2.2-6.6.6v17.4h6.5c3.4 0 6.1-.8 7.9-2.3 1.8-1.5 2.8-3.7 2.8-6.6 0-3-.9-5.2-2.7-6.8-1.7-1.6-4.4-2.3-7.9-2.3zm73.3 38.8c-3.9 1.9-8.1 2.8-12.8 2.8-6.5 0-11.5-2.1-15.1-6.2-3.6-4.1-5.4-9.9-5.4-17.3 0-4.9.8-9.2 2.5-12.7s4-6.2 7-8.1c3-1.8 6.6-2.7 10.8-2.7 4.4 0 8.4.9 12.2 2.8v5.1c-3.8-1.8-7.7-2.8-11.6-2.8-4.7 0-8.3 1.6-10.8 4.7-2.4 3.1-3.7 7.7-3.7 13.7 0 6.1 1.2 10.6 3.7 13.7 2.5 3.1 6.1 4.6 10.9 4.6 2.2 0 4.3-.3 6.3-.8v-14.1h-5l.7-5.1h10.1v22.4zm14.4-20.7c0-7.6 1.6-13.4 4.8-17.5 3.2-4 7.8-6.1 13.8-6.1s10.6 2 13.8 6.1 4.8 9.9 4.8 17.5-1.6 13.4-4.8 17.5c-3.2 4-7.8 6.1-13.8 6.1-6 0-10.6-2-13.8-6.1-3.2-4-4.8-9.9-4.8-17.5zm6.4 0c0 6.2 1 10.8 3 13.8s5.1 4.5 9.2 4.5 7.2-1.5 9.2-4.5c2-3 3-7.6 3-13.8 0-6.2-1-10.8-3-13.8s-5.1-4.5-9.2-4.5-7.2 1.5-9.2 4.5c-2 3-3 7.7-3 13.8zm45.1 0c0-7.6 1.6-13.4 4.8-17.5 3.2-4 7.8-6.1 13.8-6.1s10.6 2 13.8 6.1c3.2 4 4.8 9.9 4.8 17.5s-1.6 13.4-4.8 17.5c-3.2 4-7.8 6.1-13.8 6.1-6 0-10.6-2-13.8-6.1-3.2-4-4.8-9.9-4.8-17.5zm6.5 0c0 6.2 1 10.8 3 13.8s5.1 4.5 9.2 4.5 7.2-1.5 9.2-4.5c2-3 3-7.6 3-13.8 0-6.2-1-10.8-3-13.8s-5.1-4.5-9.2-4.5-7.2 1.5-9.2 4.5c-2 3-3 7.7-3 13.8zm47.2 22.6v-44.2c4.6-.9 8.8-1.4 12.6-1.4 6.7 0 11.9 2 15.6 6 3.7 4 5.5 9.6 5.5 16.8 0 7.4-1.8 13-5.5 17-3.7 3.9-9 5.9-16 5.9h-12.2zm12.2-5.2c5 0 8.8-1.4 11.3-4.3s3.7-7.3 3.7-13.2c0-6-1.2-10.5-3.6-13.4-2.4-2.9-6.1-4.3-11.1-4.3-2 0-4.1.2-6.4.6v34.7h6.1zm30-28.4v-8.6h-2.8v-1h6.8v1h-2.8v8.6h-1.2zm13.6 0l-.5-7.9-2.6 6.9h-1l-2.7-6.9-.5 7.9h-1.1l.7-9.6h1.3l2.8 7.2 2.8-7.2h1.3l.7 9.6H456zm-345.5 93.3l-7-20h1.9l6.1 18.1 6.2-18.1h1.8l-7 20h-2zm12.5-17.8c-.4 0-.7-.1-.9-.3s-.4-.5-.4-.9.1-.7.4-.9.5-.3.9-.3.7.1.9.3.4.5.4.9-.1.7-.4.9-.5.3-.9.3zm-.8 17.8v-14.2l1.7-.2v14.5h-1.7zm6.5 0v-14.3l1.5-.1.1 1.3c1.3-1 2.6-1.6 4.1-1.6.5 0 .9.1 1.2.2v1.4c-.5-.1-.9-.2-1.3-.2-1.4 0-2.6.5-3.9 1.5v11.9h-1.7zm11.9-13v9.1c0 1 .2 1.7.6 2.2s1.1.7 1.9.7c.6 0 1.2-.1 1.9-.3v1.3c-.8.3-1.5.4-2.2.4-1.3 0-2.3-.4-3-1.1-.7-.7-1-1.8-1-3.2v-9.1h-2.2v-1.2l2.2-.1.2-3.6 1.5-.2v3.8h4.3v1.3h-4.2zm9-1.3v9.9c0 2.3 1.2 3.5 3.5 3.5.6 0 1.3-.1 2.1-.3.8-.2 1.5-.5 2.2-.9v-12.3h1.7v14.3l-1.5.1-.1-1c-1.7.9-3.3 1.4-4.9 1.4-1.5 0-2.7-.4-3.5-1.2-.8-.8-1.2-1.9-1.2-3.4v-10.2h1.7zm23.1 14.4l-.1-1c-1.6.9-3.3 1.4-4.9 1.4-1.5 0-2.6-.4-3.5-1.2-.9-.8-1.3-1.8-1.3-3.2 0-1.4.5-2.5 1.4-3.3s2.4-1.1 4.2-1.1c1.1 0 2.4.1 3.8.4v-1.9c0-2.4-1.3-3.6-4-3.6-.7 0-1.5.1-2.3.3-.8.2-1.6.4-2.3.7V298c.7-.3 1.5-.6 2.4-.8s1.7-.3 2.5-.3c1.8 0 3.1.4 4.1 1.3.9.8 1.4 2.1 1.4 3.7v9.8l-1.4.1zm-4.6-1c.7 0 1.4-.1 2.2-.3.8-.2 1.5-.5 2.2-.9V305c-1.2-.2-2.4-.3-3.5-.3-1.5 0-2.5.2-3.2.7-.7.5-1 1.3-1 2.3-.1 2.1 1.1 3.1 3.3 3.1zm10.7.9v-21.5l1.7-.2v21.7h-1.7zm15.8-9.4v8h9.7v1.5h-11.5v-20h11.5v1.5h-9.7v7.6h8.5v1.5h-8.5zm18.1 2l5.4 7.4h-1.9l-4.4-6.2-4.4 6.2h-1.8l5.3-7.4-5-7h1.9l4 5.8 4.1-5.8h1.8l-5 7zm8 13.8v-20.7l1.5-.1.1 1c1.6-.9 3.1-1.4 4.5-1.4 1.9 0 3.3.7 4.4 2 1.1 1.3 1.6 3.1 1.6 5.4 0 2.5-.6 4.5-1.8 5.8-1.2 1.4-3 2-5.2 2-1.2 0-2.3-.2-3.3-.5v6.2l-1.8.3zm5.8-19.8c-.6 0-1.3.1-2 .3-.7.2-1.4.5-2.1.9v10.9c1 .3 2 .5 3.1.5 1.8 0 3.2-.5 4.1-1.6.9-1.1 1.3-2.7 1.3-4.9 0-2-.4-3.5-1.1-4.5-.7-1.1-1.8-1.6-3.3-1.6zm20.2 12.9c-1.3.6-2.7.9-4.2.9-2.2 0-3.9-.6-5.1-1.9-1.2-1.3-1.8-3.2-1.8-5.6 0-2.4.6-4.3 1.7-5.7 1.1-1.4 2.6-2.1 4.5-2.1 1.7 0 3 .5 4 1.6s1.5 2.5 1.5 4.3c0 .7-.1 1.3-.2 2h-9.8c0 4 1.8 6 5.3 6 1.4 0 2.8-.3 4.1-.9v1.4zm-4.9-12.9c-1.3 0-2.4.5-3.2 1.4-.8 1-1.3 2.2-1.3 3.8h8.3c0-.3.1-.6.1-.8 0-1.4-.3-2.5-1-3.3-.7-.7-1.6-1.1-2.9-1.1zm9.4 13.4v-14.3l1.5-.1.1 1.3c1.3-1 2.6-1.6 4.1-1.6.5 0 .9.1 1.2.2v1.4c-.5-.1-.9-.2-1.3-.2-1.4 0-2.6.5-3.9 1.5v11.9h-1.7zm10.7-17.8c-.4 0-.7-.1-.9-.3-.2-.2-.4-.5-.4-.9s.1-.7.4-.9c.2-.2.5-.3.9-.3s.7.1.9.3.4.5.4.9-.1.7-.4.9-.5.3-.9.3zm-.9 17.8v-14.2l1.7-.2v14.5H261zm16.6-.5c-1.3.6-2.7.9-4.2.9-2.2 0-3.9-.6-5.1-1.9-1.2-1.3-1.8-3.2-1.8-5.6 0-2.4.6-4.3 1.7-5.7 1.1-1.4 2.6-2.1 4.5-2.1 1.7 0 3 .5 4 1.6s1.5 2.5 1.5 4.3c0 .7-.1 1.3-.2 2h-9.8c0 4 1.8 6 5.3 6 1.4 0 2.8-.3 4.1-.9v1.4zm-4.8-12.9c-1.3 0-2.4.5-3.2 1.4-.8 1-1.3 2.2-1.3 3.8h8.3c0-.3.1-.6.1-.8 0-1.4-.3-2.5-1-3.3-.7-.7-1.7-1.1-2.9-1.1zm18.9 13.4v-9.9c0-2.3-1.2-3.5-3.6-3.5-.6 0-1.3.1-2.1.3-.8.2-1.5.5-2.2.9v12.3h-1.7v-14.3l1.5-.1.1 1c1.7-.9 3.3-1.4 4.9-1.4 1.5 0 2.7.4 3.6 1.2.8.8 1.3 1.9 1.3 3.4v10.2h-1.8zm15.8-.5c-1.3.6-2.6.9-4.1.9-2 0-3.6-.7-4.7-2s-1.6-3.2-1.6-5.6c0-2.4.5-4.3 1.6-5.6 1.1-1.3 2.7-2 4.7-2 1.4 0 2.8.3 4.1.9v1.3c-1.3-.6-2.6-.9-3.9-.9-1.5 0-2.7.5-3.5 1.6-.8 1-1.2 2.6-1.2 4.7 0 2 .4 3.6 1.2 4.6.8 1 2 1.6 3.5 1.6 1.3 0 2.6-.3 3.9-.9v1.4zm13.5 0c-1.3.6-2.7.9-4.2.9-2.2 0-3.9-.6-5.1-1.9-1.2-1.3-1.8-3.2-1.8-5.6 0-2.4.6-4.3 1.7-5.7 1.1-1.4 2.6-2.1 4.5-2.1 1.7 0 3 .5 4 1.6s1.5 2.5 1.5 4.3c0 .7-.1 1.3-.2 2h-9.8c0 4 1.8 6 5.3 6 1.4 0 2.8-.3 4.1-.9v1.4zm-4.9-12.9c-1.3 0-2.4.5-3.2 1.4-.8 1-1.3 2.2-1.3 3.8h8.3c0-.3.1-.6.1-.8 0-1.4-.3-2.5-1-3.3-.7-.7-1.7-1.1-2.9-1.1zm24.1 17.6v-25.7h1.6v25.7h-1.6zm34-24.2h1.7v20h-1.7l-10.7-17v17h-1.7v-20h1.7l10.7 17v-17zm12.3 20.5c-2.1 0-3.6-.6-4.7-1.9-1.1-1.3-1.6-3.2-1.6-5.7s.5-4.4 1.6-5.7c1.1-1.3 2.6-1.9 4.7-1.9s3.6.6 4.7 1.9c1.1 1.3 1.6 3.2 1.6 5.7s-.5 4.4-1.6 5.7c-1.1 1.2-2.6 1.9-4.7 1.9zm0-1.4c1.6 0 2.7-.5 3.4-1.5s1.1-2.6 1.1-4.8c0-2.2-.4-3.7-1.1-4.7s-1.9-1.5-3.4-1.5c-1.6 0-2.7.5-3.4 1.5-.7 1-1.1 2.6-1.1 4.7 0 2.2.4 3.8 1.1 4.8.7 1 1.8 1.5 3.4 1.5zm13.1.9l-5.4-14.4h1.8l4.5 12.5 4.6-12.5h1.7l-5.5 14.4h-1.7zm19.7-.5c-1.3.6-2.7.9-4.2.9-2.2 0-3.9-.6-5.1-1.9-1.2-1.3-1.8-3.2-1.8-5.6 0-2.4.6-4.3 1.7-5.7 1.1-1.4 2.6-2.1 4.5-2.1 1.7 0 3 .5 4 1.6s1.5 2.5 1.5 4.3c0 .7-.1 1.3-.2 2h-9.8c0 4 1.8 6 5.3 6 1.4 0 2.8-.3 4.1-.9v1.4zm-4.9-12.9c-1.3 0-2.4.5-3.2 1.4-.8 1-1.3 2.2-1.3 3.8h8.3c0-.3.1-.6.1-.8 0-1.4-.3-2.5-1-3.3-.7-.7-1.7-1.1-2.9-1.1zm26.5 13.4v-10.2c0-2.2-1-3.2-3.1-3.2-1.2 0-2.5.4-4.1 1.3.2.5.2 1.1.2 1.7v10.5h-1.7v-10.2c0-2.2-1-3.2-3.1-3.2-1.1 0-2.4.4-3.8 1.2v12.3h-1.7v-14.3l1.5-.1.1 1c1.6-.9 3.1-1.4 4.4-1.4 1.7 0 2.9.6 3.6 1.7 1.8-1.1 3.5-1.7 5-1.7 1.4 0 2.5.4 3.2 1.1.8.7 1.1 1.8 1.1 3.2v10.5h-1.6zm8.1-13.5c.7-.4 1.5-.7 2.2-.9.8-.2 1.5-.3 2.1-.3 1.9 0 3.3.7 4.4 2 1.1 1.3 1.6 3.1 1.6 5.4 0 2.5-.6 4.5-1.8 5.8-1.2 1.4-3 2-5.2 2-1.6 0-3.3-.3-5-.8v-21.1l1.7-.2v8.1zm4 .1c-.6 0-1.3.1-2 .3-.7.2-1.4.5-2.1.9v10.9c1 .3 2 .5 3.1.5 1.8 0 3.2-.5 4.1-1.6.9-1.1 1.3-2.7 1.3-4.9 0-2-.4-3.5-1.1-4.5-.7-1.1-1.8-1.6-3.3-1.6zm20.2 12.9c-1.3.6-2.7.9-4.2.9-2.2 0-3.9-.6-5.1-1.9-1.2-1.3-1.8-3.2-1.8-5.6 0-2.4.6-4.3 1.7-5.7 1.1-1.4 2.6-2.1 4.5-2.1 1.7 0 3 .5 4 1.6s1.5 2.5 1.5 4.3c0 .7-.1 1.3-.2 2h-9.8c0 4 1.8 6 5.3 6 1.4 0 2.8-.3 4.1-.9v1.4zm-4.8-12.9c-1.3 0-2.4.5-3.2 1.4-.8 1-1.3 2.2-1.3 3.8h8.3c0-.3.1-.6.1-.8 0-1.4-.3-2.5-1-3.3-.7-.7-1.7-1.1-2.9-1.1zm9.3 13.4v-14.3l1.5-.1.1 1.3c1.3-1 2.6-1.6 4.1-1.6.5 0 .9.1 1.2.2v1.4c-.5-.1-.9-.2-1.3-.2-1.4 0-2.6.5-3.9 1.5v11.9h-1.7zm20.3 0V294l-4.9 3.3-.4-1.4 5.6-3.7h1.4v19.6H498zm5-2.1c1.7.8 3.4 1.2 5.2 1.2 1.6 0 2.9-.4 3.8-1.2 1-.8 1.4-1.8 1.4-3.2 0-1.3-.4-2.3-1.3-3.1-.9-.8-2.1-1.2-3.6-1.2h-1.7v-1.4h1.6c1.4 0 2.5-.3 3.3-1 .8-.7 1.2-1.6 1.2-2.8 0-1.2-.4-2.2-1.2-2.9-.8-.7-2-1-3.4-1-1.5 0-3 .3-4.5.9v-1.4c1.4-.6 2.9-.9 4.6-.9 1.8 0 3.4.5 4.5 1.4 1.2 1 1.8 2.2 1.8 3.7 0 1.1-.3 2.1-1 2.9-.6.8-1.5 1.4-2.7 1.7 1.3.3 2.3.9 3.1 1.8.7.9 1.1 2 1.1 3.2 0 1.1-.3 2.1-.9 3-.6.9-1.4 1.5-2.5 2-1 .5-2.2.7-3.5.7-.9 0-1.8-.1-2.7-.3-.9-.2-1.7-.5-2.3-.8l-.3-1.3zm15.2-4.3v-1.5h7.5v1.5h-7.5zm14 6.4V294l-4.9 3.3-.4-1.4 5.6-3.7h1.4v19.6h-1.7zm14.9-19.5c1.1 0 1.9 0 2.4-.1v1.5h-8.3l-.7 6.9c.5-.2 1.1-.4 1.8-.6.7-.2 1.4-.2 2.1-.2 1.8 0 3.3.5 4.4 1.6 1.1 1.1 1.7 2.6 1.7 4.4 0 1.3-.3 2.5-.9 3.4-.6 1-1.4 1.7-2.5 2.3-1.1.5-2.3.8-3.7.8-.9 0-1.8-.1-2.7-.3-.9-.2-1.7-.5-2.3-.8l-.3-1.5c1.7.8 3.4 1.2 5.2 1.2 1.7 0 3.1-.4 4-1.3.9-.9 1.4-2.2 1.4-3.8 0-1.5-.4-2.6-1.2-3.5-.8-.8-2-1.2-3.5-1.2-.7 0-1.5.1-2.2.3-.7.2-1.4.4-1.9.8l-.9-.6.9-9.3h7.2zm5.5 23.9c.5-.7.9-1.4 1.2-2.1.3-.7.5-1.4.5-2.1-.3-.1-.5-.2-.7-.4-.2-.2-.2-.5-.2-.8 0-.4.1-.7.4-1 .2-.2.6-.4.9-.4.4 0 .7.1 1 .4.2.3.3.7.3 1.2 0 .8-.3 1.8-.8 2.8-.5 1.1-1.2 2-2 2.7l-.6-.3zm13-4.4c.1-1.7.5-3.3 1.3-4.6.8-1.4 1.9-2.7 3.5-3.9l2.5-2.1c1-.9 1.8-1.6 2.2-2.2.4-.6.6-1.3.6-2 0-1.1-.4-2-1.2-2.7-.8-.7-1.9-1-3.3-1-.9 0-1.7.1-2.5.4-.8.3-1.6.7-2.5 1.3v-1.4c1.6-1.1 3.4-1.7 5.4-1.7 1.7 0 3.1.5 4.2 1.4s1.7 2.2 1.7 3.6c0 .6-.1 1.2-.3 1.7-.2.5-.6 1.1-1 1.6-.5.6-1.2 1.2-2.1 1.9l-2.5 2c-1.2 1-2.2 2-2.8 3-.7 1-1.1 2.1-1.3 3.2h7.9c1.1 0 1.9 0 2.4-.1v1.5h-12.2zm22 .5c-2.3 0-4-.9-5.1-2.6-1.2-1.7-1.7-4.3-1.7-7.6 0-3.4.6-5.9 1.7-7.6 1.2-1.7 2.9-2.6 5.1-2.6s4 .9 5.1 2.6c1.2 1.7 1.7 4.3 1.7 7.6 0 3.4-.6 5.9-1.7 7.6-1.1 1.7-2.8 2.6-5.1 2.6zm0-1.4c1.7 0 3-.7 3.8-2.2.8-1.5 1.3-3.7 1.3-6.7s-.4-5.2-1.3-6.7-2.1-2.2-3.8-2.2-3 .7-3.8 2.2c-.8 1.4-1.3 3.7-1.3 6.7s.4 5.2 1.3 6.7c.8 1.5 2.1 2.2 3.8 2.2zm9.4.9c.1-1.7.5-3.3 1.3-4.6.8-1.4 1.9-2.7 3.5-3.9l2.5-2.1c1-.9 1.8-1.6 2.2-2.2.4-.6.6-1.3.6-2 0-1.1-.4-2-1.2-2.7-.8-.7-1.9-1-3.3-1-.9 0-1.7.1-2.5.4-.8.3-1.6.7-2.5 1.3v-1.4c1.6-1.1 3.4-1.7 5.4-1.7 1.7 0 3.1.5 4.2 1.4s1.7 2.2 1.7 3.6c0 .6-.1 1.2-.3 1.7-.2.5-.6 1.1-1 1.6-.5.6-1.2 1.2-2.1 1.9l-2.5 2c-1.2 1-2.2 2-2.8 3-.7 1-1.1 2.1-1.3 3.2h7.9c1.1 0 1.9 0 2.4-.1v1.5H597zm22 .5c-2.3 0-4-.9-5.1-2.6-1.2-1.7-1.7-4.3-1.7-7.6 0-3.4.6-5.9 1.7-7.6 1.2-1.7 2.9-2.6 5.1-2.6s4 .9 5.1 2.6c1.2 1.7 1.7 4.3 1.7 7.6 0 3.4-.6 5.9-1.7 7.6-1.1 1.7-2.8 2.6-5.1 2.6zm0-1.4c1.7 0 3-.7 3.8-2.2.8-1.5 1.3-3.7 1.3-6.7s-.4-5.2-1.3-6.7-2.1-2.2-3.8-2.2-3 .7-3.8 2.2c-.8 1.4-1.3 3.7-1.3 6.7s.4 5.2 1.3 6.7c.8 1.5 2.1 2.2 3.8 2.2z"/><path class="st11" d="M1008.1.4v200l95.8-100z"/><path class="st0" d="M1199.8 200.4h-191.7l95.8-100z"/><path class="st11" d="M1008.1 400.4H816.4l95.9-100z"/><path class="st11" d="M816.4 200.4v200l95.9-100z"/><path class="st3" d="M1008.1 200.4h191.7l-95.9 100z"/><path class="st3" d="M1008.1 200.4v200l95.8-100z"/><path class="st0" d="M816.4 200.4l95.9 100 95.8-100z"/><path class="st5" d="M1199.8 400.4l-95.9-100-95.8 100z"/><path class="st12" d="M1199.8.4l-95.9 100 95.9 100z"/><path class="st5" d="M1199.8 200.4l-95.9 100 95.9 100zM1008.1.4l95.8 100 95.9-100z"/><path fill="#b20d3f" d="M816.4.4l95.9 100 95.8-100z"/><path class="st12" d="M912.3 300.4l95.8 100v-200zm0-200L816.4.4v200z"/><path class="st12" d="M1008.1 200.4H816.4l95.9-100z"/><path fill="#b30d3f" d="M1008.1 200.4V.4l-95.8 100z"/><g class="st9"><path class="st10" d="M1114.8 112c-.2 0-.5-.1-.7-.2-.5-.4-.5-1-.2-1.5l10-12.4-12.4-10c-.5-.4-.5-1-.2-1.5.4-.5 1-.5 1.5-.2l13.3 10.6c.2.2.4.4.4.7s-.1.6-.2.8l-10.6 13.3c-.3.3-.6.4-.9.4z"/></g><g class="st9"><path class="st10" d="M1095.7 114.6c-.2 0-.5-.1-.7-.2l-13.3-10.6c-.2-.2-.4-.4-.4-.7s.1-.6.2-.8l10.6-13.3c.4-.5 1-.5 1.5-.2.5.4.5 1 .2 1.5l-10 12.4 12.4 10c.5.4.5 1 .2 1.5-.1.3-.4.4-.7.4z"/></g><path class="st10" d="M1100.8 119h-.2c-.6-.1-1-.6-.9-1.2l5.9-34.9c.1-.6.6-1 1.2-.9.6.1 1 .6.9 1.2l-5.9 34.9c0 .5-.5.9-1 .9zM914.3 319.6h-.2c-.6-.1-1-.7-.9-1.2l6.6-36.2c.1-.6.7-1 1.2-.9.6.1 1 .7.9 1.2l-6.6 36.2c0 .5-.5.9-1 .9zm-10.6 0h-.2c-.6-.1-1-.7-.9-1.2l6.6-36.2c.1-.6.7-1 1.2-.9.6.1 1 .7.9 1.2l-6.6 36.2c0 .5-.5.9-1 .9z"/><path class="st10" d="M926.4 306.4h-29.6c-.6 0-1.1-.5-1.1-1.1 0-.6.5-1.1 1.1-1.1h29.6c.6 0 1.1.5 1.1 1.1-.1.6-.6 1.1-1.1 1.1zm1.4-9.8h-29.6c-.6 0-1.1-.5-1.1-1.1 0-.6.5-1.1 1.1-1.1h29.6c.6 0 1.1.5 1.1 1.1 0 .6-.5 1.1-1.1 1.1zm176.1 23.5c-.3 0-.6-.1-.8-.3l-18.7-18.7c-.1-.1-.2-.3-.3-.4l-3.1-9.1c-.1-.3-.1-.6.1-.8l3.5-6.7c.1-.2.3-.4.6-.5l8.3-2.8c.3-.1.6-.1.8.1l7.4 3.9c.1.1.2.1.3.2l1.8 1.8 1.8-1.8c.1-.1.2-.1.3-.2l7.4-3.9c.3-.1.6-.2.8-.1l8.3 2.8c.3.1.5.3.6.5l3.5 6.7c.1.3.2.6.1.8l-3.1 9.1c-.1.2-.1.3-.3.4l-18.7 18.7c0 .2-.3.3-.6.3zm-17.7-20.3l17.8 17.8 17.8-17.8 2.9-8.4-3.1-6-7.5-2.5-6.9 3.6-2.4 2.5c-.2.2-.5.3-.8.3-.3 0-.6-.1-.8-.3l-2.4-2.5-6.9-3.6-7.5 2.5-3.1 6 2.9 8.4z"/><path class="st1" d="M922.3 122.9c-.2 0-.5-.1-.7-.2l-9.6-7.9h-19.4c-.6 0-1.1-.5-1.1-1.1V79.1c0-.6.5-1.1 1.1-1.1h39.6c.6 0 1.1.5 1.1 1.1v34.5c0 .6-.5 1.1-1.1 1.1h-8.8v7.1c0 .4-.2.8-.6 1-.2 0-.4.1-.5.1zm-28.7-10.3h18.7c.2 0 .5.1.7.2l8.2 6.7v-5.9c0-.6.5-1.1 1.1-1.1h8.8V80.2h-37.5v32.4z"/></svg>