<svg id="Layer_1" xmlns="http://www.w3.org/2000/svg" xmlns:xlink="http://www.w3.org/1999/xlink" viewBox="0 0 1200.2 399.4"><style>.st2{fill:#00bfe4}.st3{fill:#d03655}.st4{fill:#10253f}.st5{fill:#013d5b}.st6{fill:none;stroke:#fff;stroke-width:4.5;stroke-linecap:round;stroke-linejoin:round}.st7{fill:#a42641}.st8{fill:#00a3c4}</style><defs><path id="SVGID_1_" d="M0 0h1200.2v399.4H0z"/></defs><clipPath id="SVGID_2_"><use xlink:href="#SVGID_1_" overflow="visible"/></clipPath><g id="Layer_1_1_" clip-path="url(#SVGID_2_)"><path fill="#00132b" d="M0 0h1200.5v399.9H0z"/><path class="st2" d="M1000.9 379.9h198.2v20.8h-198.2z"/><path class="st3" d="M1000.9 399.5H801l99.9-99.9z"/><path class="st4" d="M801.1 200.3h199.7L901 300.1l-99.9-99.8z"/><path class="st5" d="M801 399.6l.1-199.3 99.8 99.4z"/><path class="st4" d="M1000.8 199.8v199.7l-99.9-99.9z"/><path class="st6" d="M911.1 278.4l-7.8 42.6m-4.7-42.6l-7.8 42.6m-8.1-15.6h34.7m-32.9-11.5h34.7"/><path class="st3" d="M1000.9 200.3H801.1L901 100z"/><path class="st7" d="M801.1-.1h199.7L901 100.1z"/><path class="st3" d="M801.1 200.3V-.3L901 100z"/><path class="st7" d="M1000.8-.1v200.4L901 100.1z"/><path class="st6" d="M887.6 79.6h32.3v33h-9.4v7.8l-9.5-7.8h-18.9v-33h5.5z"/><path class="st2" d="M1200.6 200.3v199.3l-99.9-99.6z"/><path class="st2" d="M1200.6 399.6h-199.8l99.9-99.6z"/><path class="st8" d="M1000.8 399.6V200.3l99.9 99.7z"/><path class="st8" d="M1000.8 200.3h199.8l-99.9 99.7z"/><path class="st6" d="M1120 282.9l-8.7-2.9-7.9 4.1-2.7 2.7-2.7-2.7-7.8-4.1-8.8 2.9-3.7 7.1 3.2 9.7 19.8 19.7 19.8-19.7 3.2-9.7z"/><path class="st2" d="M1000.9-2.7h200v20.8h-200z"/><path class="st5" d="M1200.6 200.3h-199.8v-.1l99.9-100.3z"/><path class="st4" d="M1000.8 200.3V0L1101 100.1z"/><path class="st3" d="M1200.6-.3v200.6L1101 100z"/><path class="st2" d="M1000.8 0h200.1l-100 99.9z"/><path class="st6" d="M1115 113.3l13.8-17.2-17.3-13.9m-24.8 3.5l-13.8 17.2 17.3 13.9m6.6 5.7l7.7-45.5"/></g><path d="M395.9 104.7c-1.3 0-2.7-.4-3.8-1-1.1-.6-2-1.6-2.6-2.7-.6-1.1-.9-2.4-.9-3.7 0-1.4.3-2.8 1-4 .6-1.1 1.6-2.1 2.7-2.7 1.1-.6 2.3-1 3.6-1 1.3 0 2.7.4 3.8 1 1.1.7 2 1.6 2.6 2.7.6 1.1.9 2.4.9 3.7 0 1.4-.4 2.7-1 3.9-.6 1.2-1.6 2.1-2.7 2.7-1.1.7-2.3 1.1-3.6 1.1zm0-1.3c1.1.1 2.2-.2 3.1-.9.9-.6 1.6-1.4 2.1-2.3.5-1 .8-2.1.8-3.2 0-1.2-.3-2.3-.9-3.3-.5-.9-1.3-1.7-2.2-2.2-.9-.5-2-.7-3-.7-1.1 0-2.2.3-3.1.9-.9.6-1.6 1.4-2.1 2.3-.5 1-.8 2.1-.7 3.2 0 1.2.3 2.3.9 3.3.5.9 1.3 1.7 2.2 2.2.8.5 1.9.7 2.9.7zm2-2.3l-2-3.3h-1.4v3.3h-1.1v-8c.8-.1 1.6-.2 2.4-.2.7 0 1.5.2 2.1.6.5.5.8 1.2.7 1.8.1 1.1-.7 2.1-1.7 2.3l2.1 3.5h-1.1zm-3.3-4.2h1.1c.5 0 1-.1 1.5-.4.4-.3.6-.8.5-1.2 0-.4-.1-.9-.5-1.1-.4-.3-.9-.4-1.4-.4-.4 0-.8 0-1.2.1v3zm-260 33c-3 1.6-6.4 2.5-9.9 2.5-4.5.2-8.7-1.9-11.4-5.4-2.7-3.6-4.1-8.7-4.1-15.1s1.4-11.5 4.1-15.1c2.7-3.6 6.9-5.6 11.4-5.4 3.4 0 6.7.9 9.6 2.5v2.8c-1.5-.7-3.1-1.4-4.7-1.8-1.5-.4-3-.6-4.6-.6-4.1 0-7.2 1.5-9.2 4.4s-3.1 7.4-3.1 13.1 1 10.1 3.1 13.1 5.1 4.4 9.2 4.4c3.3 0 6.5-.8 9.4-2.3v3l.2-.1zm25.2 1.6l-.2-2c-2.8 1.7-6 2.7-9.3 2.7-2.4.1-4.8-.7-6.7-2.2-1.7-1.6-2.6-3.9-2.5-6.3 0-2.8.9-5 2.7-6.4s4.6-2.2 8.2-2.2c2.4 0 4.9.3 7.3.7V112c0-4.7-2.6-7-7.8-7-1.5 0-3 .2-4.4.6-1.5.3-3 .8-4.4 1.5v-2.6c1.5-.7 3-1.2 4.6-1.5 1.6-.4 3.2-.6 4.8-.6 3.5 0 6.1.9 7.8 2.5 1.9 1.9 2.9 4.5 2.7 7.2v19.3l-2.8.1zm-8.7-2c1.4 0 2.8-.2 4.2-.6 1.5-.4 2.9-1 4.2-1.7v-9c-2.2-.4-4.5-.7-6.8-.6-2.8 0-4.8.5-6.2 1.5-1.4 1.1-2.1 2.8-2 4.6 0 4 2.2 5.8 6.6 5.8zm21.2 14.5v-40.7l2.8-.2.2 2c2.5-1.7 5.5-2.6 8.5-2.7 3.3-.2 6.4 1.3 8.4 3.8 2 2.6 3.1 6.2 3.1 10.6 0 4.9-1.1 8.8-3.5 11.5-2.4 2.7-5.7 4-10 4-2.1 0-4.3-.3-6.3-.9v12.1l-3.2.5zm11.2-39c-1.3 0-2.6.2-3.8.6-1.4.4-2.8 1-4 1.7v21.4c1.9.6 3.9.9 5.9.9 3.5 0 6.1-1 7.8-3.1s2.6-5.3 2.6-9.6c0-3.8-.7-6.8-2.1-8.8-1.6-2-3.9-3.2-6.4-3.1zm21.7-8.7c-.6 0-1.3-.2-1.7-.6-.5-.5-.8-1.2-.7-1.8 0-.7.3-1.4.7-1.9.5-.4 1.1-.7 1.7-.6.6 0 1.3.2 1.7.6.5.5.8 1.2.8 1.9s-.3 1.4-.8 1.8c-.4.4-1.1.6-1.7.6zm-1.6 35.1v-27.9l3.3-.5v28.4h-3.3zm17.4-25.7v18.1c-.1 1.5.3 3.1 1.2 4.3 1 .9 2.3 1.4 3.7 1.4 1.3 0 2.5-.3 3.7-.6v2.5c-1.4.5-2.8.7-4.2.7-2.1.1-4.2-.6-5.8-2.1-1.4-1.4-2-3.5-2-6.3v-17.9h-4.2v-2.5l4.3-.1.4-7 2.8-.4v7.4h8.3v2.6l-8.2-.1zm32.1 25.8l-.2-2c-2.8 1.7-6 2.7-9.3 2.7-2.4.1-4.8-.7-6.7-2.2-1.7-1.6-2.6-3.9-2.5-6.3 0-2.8.9-5 2.7-6.4s4.6-2.2 8.2-2.2c2.5 0 4.9.3 7.3.7V112c0-4.7-2.6-7-7.8-7-1.5 0-3 .2-4.4.6-1.5.3-3 .8-4.5 1.5v-2.6c1.5-.7 3-1.2 4.6-1.5 1.6-.4 3.2-.6 4.8-.6 3.5 0 6.1.9 7.8 2.5 1.9 1.9 2.9 4.5 2.7 7.2v19.3l-2.7.1zm-8.8-2c1.4 0 2.8-.2 4.2-.6 1.5-.4 2.9-1 4.2-1.7v-9c-2.2-.4-4.5-.7-6.8-.6-2.8 0-4.8.5-6.2 1.5-1.4 1.1-2.1 2.8-2 4.6 0 4 2.3 5.8 6.6 5.8zm21.3 1.9V89.2l3.2-.5v42.7h-3.2zm42.3.8c-5.1 0-8.9-1.7-11.6-5.3s-4.1-8.7-4.1-15.2 1.4-11.6 4.1-15.2 6.6-5.3 11.6-5.3 8.9 1.7 11.6 5.3 4.1 8.7 4.1 15.2-1.4 11.6-4.1 15.2c-2.7 3.6-6.7 5.3-11.6 5.3zm0-2.8c8 0 12.1-5.9 12.1-17.7S315.9 94 307.9 94s-12.1 5.9-12.1 17.7 4 17.7 12.1 17.7zm42.7 2V112c0-4.6-2.2-6.9-6.8-6.9-1.4 0-2.7.2-4 .6-1.5.4-2.9 1-4.2 1.7v24.1h-3.3v-28.2l2.9-.2.2 2c2.8-1.7 6-2.7 9.3-2.7 2.5-.2 5 .7 6.9 2.3 1.7 1.8 2.6 4.2 2.5 6.7v20h-3.5zm32.4-1c-2.5 1.2-5.3 1.9-8.2 1.9-4.2 0-7.4-1.2-9.6-3.8s-3.3-6.2-3.3-11 1.1-8.4 3.2-11.1c2.1-2.7 5.3-4.2 8.6-4.1 2.9-.2 5.7 1 7.7 3.1 2 2.4 3 5.4 2.8 8.5 0 1.3-.1 2.6-.4 3.8H365c0 7.8 3.5 11.7 10.1 11.7 2.7 0 5.4-.6 7.8-1.9l.1 2.9zm-9.4-25.5c-2.4-.1-4.6 1-6.1 2.8-1.7 2.1-2.6 4.8-2.5 7.6h16c.1-.5.1-1.1.1-1.6 0-2.7-.6-5-2-6.4-1.3-1.6-3.3-2.5-5.5-2.4zM112.7 218.3v-54.7c5.1-1.1 10.3-1.6 15.6-1.7 8.3 0 14.7 2.5 19.3 7.4 4.6 5 6.8 11.9 6.8 20.8 0 9.1-2.2 16.1-6.8 21s-11.1 7.3-19.8 7.3l-15.1-.1zm15.2-6.3c6.2 0 10.9-1.7 14-5.3s4.6-9 4.6-16.3-1.5-13-4.4-16.6-7.5-5.3-13.7-5.3c-2.7 0-5.3.3-7.9.7v42.9h7.5l-.1-.1zm46.8 6.3v-55.8h7.5v55.8h-7.5zm68.9-2.2c-4.9 2.4-10.4 3.5-15.8 3.5-8 0-14.2-2.6-18.7-7.7s-6.7-12.2-6.7-21.4c0-6.1 1-11.4 3.1-15.7 1.9-4.1 4.9-7.6 8.7-10 4.1-2.3 8.7-3.5 13.4-3.3 5.2-.1 10.4 1.1 15.1 3.5v6.3c-4.5-2.2-9.4-3.4-14.3-3.5-5.8 0-10.3 2-13.4 5.8s-4.6 9.5-4.6 16.9 1.5 13.1 4.6 16.9 7.5 5.7 13.5 5.7c2.6 0 5.2-.3 7.8-1v-17.4H230l.9-6.3h12.4v27.7h.3zm20.4 2.2v-55.8h7.5v55.8H264zm40.4 0v-49.5h-16v-6.4h39.3v6.4h-15.9v49.5h-7.4zm69.1 0l-4.5-13.9h-22.3l-4.5 13.9h-7.8l18.9-55.8h8.9l18.9 55.8h-7.6zm-24.8-19.6h18.4l-9.3-28.8-9.1 28.8zm48.9 19.6v-55.8h7.5V212h25v6.4h-32.5v-.1zm-284.9 86.8v-55.8h33v6.4h-25.5V275h22.3v6.4h-22.3v23.8l-7.5-.1zm47.5-27.9c0-9.4 2-16.6 5.9-21.6s9.7-7.6 17.1-7.6 13.1 2.5 17.1 7.6c4 5.1 5.9 12.2 5.9 21.6s-2 16.6-5.9 21.6-9.6 7.5-17.1 7.5-13.1-2.5-17.1-7.5-5.9-12.2-5.9-21.6zm7.9 0c0 7.7 1.2 13.4 3.7 17.1 2.5 3.7 6.3 5.6 11.4 5.6s8.9-1.9 11.4-5.6 3.7-9.4 3.7-17.1-1.2-13.4-3.7-17.1-6.3-5.6-11.4-5.6-8.9 1.9-11.4 5.6-3.7 9.5-3.7 17.1zm88.8 27.9L243.7 283h-9.8v22.1h-7.4v-54.7c2.7-.6 5.4-1 8.2-1.2 2.6-.3 5.2-.5 7.8-.5 6.3 0 11.2 1.5 14.8 4.6 3.6 3.1 5.4 7.3 5.4 12.6.1 3.6-1 7-3.1 9.9-2.2 2.8-5.3 4.9-8.8 5.8l14.8 23.4h-8.8v.1zm-15-50.3c-2.7 0-5.5.3-8.2.7V277h8c4.2 0 7.5-1 9.8-2.9 2.4-2 3.6-5.1 3.5-8.2 0-3.7-1.1-6.4-3.3-8.4s-5.4-2.7-9.8-2.7zm90.7 48c-4.9 2.4-10.4 3.5-15.8 3.5-8 0-14.2-2.6-18.7-7.7s-6.7-12.2-6.7-21.4c0-6.1 1-11.4 3.1-15.7 1.9-4.1 4.9-7.6 8.7-10 4.1-2.3 8.7-3.5 13.4-3.3 5.2-.1 10.4 1.1 15.1 3.5v6.3c-4.5-2.2-9.4-3.4-14.3-3.5-5.8 0-10.3 2-13.4 5.8s-4.6 9.5-4.6 16.9 1.5 13.1 4.6 16.9 7.5 5.7 13.5 5.7c2.6 0 5.2-.3 7.8-1v-17.4H319l.9-6.3h12.5v27.7h.2zm17.8-25.6c0-9.4 2-16.6 5.9-21.6s9.7-7.6 17.1-7.6 13.1 2.5 17.1 7.6c4 5.1 5.9 12.2 5.9 21.6s-2 16.6-5.9 21.6-9.6 7.5-17.1 7.5-13.1-2.5-17.1-7.5-5.9-12.2-5.9-21.6zm7.9 0c0 7.7 1.2 13.4 3.7 17.1 2.5 3.7 6.3 5.6 11.4 5.6s8.9-1.9 11.4-5.6 3.7-9.4 3.7-17.1-1.2-13.4-3.7-17.1-6.3-5.6-11.4-5.6-8.9 1.9-11.4 5.6-3.7 9.5-3.7 17.1zm55.8 0c0-9.4 2-16.6 5.9-21.6s9.6-7.6 17.1-7.6 13.1 2.5 17.1 7.6c4 5.1 5.9 12.2 5.9 21.6s-2 16.6-5.9 21.6-9.6 7.5-17.1 7.5-13.1-2.5-17.1-7.5-5.9-12.2-5.9-21.6zm8 0c0 7.7 1.2 13.4 3.7 17.1 2.5 3.7 6.3 5.6 11.4 5.6s8.9-1.9 11.4-5.6 3.7-9.4 3.7-17.1-1.2-13.4-3.7-17.1-6.3-5.6-11.4-5.6-8.9 1.9-11.4 5.6-3.7 9.5-3.7 17.1zm58.4 27.9v-54.7c5.1-1.1 10.3-1.7 15.6-1.7 8.3 0 14.7 2.5 19.3 7.4 4.6 4.9 6.8 11.9 6.8 20.8 0 9.1-2.2 16.1-6.8 21s-11.1 7.3-19.8 7.3l-15.1-.1zm15.1-6.4c6.2 0 10.9-1.7 14-5.3 3.1-3.6 4.6-9 4.6-16.3s-1.5-13-4.5-16.6-7.5-5.3-13.7-5.3c-2.7 0-5.3.3-7.9.7v42.9h7.5v-.1zm37.1-35.1V253h-3.5v-1.2h8.4v1.2h-3.5v10.6h-1.4zm16.8 0l-.6-9.8-3.2 8.5h-1.2l-3.3-8.5-.6 9.8h-1.4l.9-11.9h1.6l3.5 8.9 3.5-8.9h1.6l.9 11.9h-1.7z" fill="#fff" id="Comments"/></svg>