<svg xmlns="http://www.w3.org/2000/svg" viewBox="0 0 600 600"><path fill="#013d5b" d="M-.5.1h600v600H-.5z"/><path d="M359.2 149.5c-1.3 0-2.4-.3-3.4-1s-1.8-1.5-2.4-2.5c-.6-1-.8-2.2-.8-3.4 0-1.3.3-2.5.9-3.5.6-1 1.4-1.9 2.4-2.4 1-.6 2.1-.9 3.3-.9 1.3 0 2.4.3 3.4 1 1 .6 1.8 1.5 2.4 2.5.6 1 .8 2.2.8 3.4 0 1.3-.3 2.5-.9 3.5-.6 1-1.4 1.9-2.4 2.4-1 .7-2.1.9-3.3.9zm0-1c1.1 0 2-.3 2.9-.8.8-.5 1.5-1.2 1.9-2.1.5-.9.7-1.8.7-2.9 0-1.1-.3-2.1-.8-3-.5-.9-1.2-1.6-2-2-.8-.5-1.7-.7-2.7-.7-1.1 0-2 .3-2.9.8-.8.5-1.5 1.2-1.9 2.1-.5.9-.7 1.8-.7 2.9 0 1.1.3 2.1.8 3 .5.9 1.2 1.6 2 2 .8.5 1.7.7 2.7.7zm1.7-2.2l-1.8-3h-1.2v3h-1V139c.8-.1 1.5-.2 2.1-.2.8 0 1.5.2 2 .6.5.4.7 1 .7 1.6 0 1.1-.5 1.8-1.6 2.1l1.9 3.1h-1.1zm-3-3.7h1c.6 0 1-.1 1.3-.4.3-.3.5-.6.5-1.1 0-.5-.1-.8-.5-1.1-.3-.2-.7-.4-1.3-.4-.3 0-.7 0-1.1.1l.1 2.9zm-235.4 29.8c-2.8 1.5-5.8 2.2-8.9 2.2-4.4 0-7.8-1.6-10.3-4.9s-3.7-7.8-3.7-13.7c0-5.8 1.2-10.4 3.7-13.7 2.5-3.3 5.9-4.9 10.3-4.9 3 0 5.9.7 8.8 2.2v2.6c-1.5-.7-2.9-1.3-4.3-1.6-1.3-.3-2.7-.5-4.1-.5-3.7 0-6.4 1.4-8.3 4.1-1.9 2.7-2.8 6.7-2.8 11.9s.9 9.2 2.8 11.9c1.9 2.7 4.6 4.1 8.3 4.1 2.8 0 5.7-.7 8.5-2.1v2.4zm22.9 1.5l-.2-1.8c-2.8 1.6-5.7 2.4-8.4 2.4-2.5 0-4.6-.7-6.1-2.1-1.5-1.4-2.2-3.3-2.2-5.7 0-2.5.8-4.5 2.5-5.8 1.7-1.3 4.1-2 7.4-2 2 0 4.2.2 6.7.7v-3.5c0-4.2-2.3-6.4-7-6.4-1.2 0-2.6.2-4 .5-1.5.3-2.8.8-4 1.3v-2.4c1.2-.6 2.6-1 4.1-1.4 1.5-.3 3-.5 4.4-.5 3.1 0 5.5.8 7.1 2.3 1.6 1.5 2.4 3.7 2.4 6.6v17.4l-2.7.4zm-8-1.8c1.2 0 2.5-.2 3.8-.6 1.3-.4 2.6-.9 3.8-1.5v-8.2c-2.1-.4-4.1-.6-6.2-.6-2.5 0-4.4.4-5.6 1.3-1.2.9-1.7 2.3-1.7 4.2 0 3.7 2 5.4 5.9 5.4zm19.2 13.1v-36.9l2.5-.3.2 1.8c2.8-1.6 5.4-2.5 7.7-2.5 3.2 0 5.8 1.2 7.6 3.5 1.9 2.3 2.8 5.6 2.8 9.7 0 4.5-1 8-3.2 10.4-2.1 2.4-5.1 3.6-9.1 3.6-2 0-3.9-.3-5.7-.8v11l-2.8.5zm10.1-35.3c-1.1 0-2.3.2-3.5.6-1.3.4-2.5.9-3.6 1.5v19.4c1.7.5 3.5.8 5.4.8 3.2 0 5.5-.9 7.1-2.8s2.3-4.8 2.3-8.7c0-3.5-.7-6.2-2-8-1.3-1.9-3.2-2.8-5.7-2.8zm19.8-7.9c-.7 0-1.2-.2-1.6-.6-.4-.4-.6-1-.6-1.7s.2-1.3.6-1.7c.4-.4 1-.6 1.6-.6.7 0 1.2.2 1.6.6.4.4.6 1 .6 1.7s-.2 1.3-.6 1.7c-.4.4-1 .6-1.6.6zm-1.5 31.8v-25.4l3-.4v25.8h-3zm15.7-23.3v16.3c0 1.8.4 3.1 1.1 3.9.7.8 1.9 1.2 3.4 1.2 1 0 2.1-.2 3.4-.6v2.2c-1.4.5-2.7.7-3.8.7-2.3 0-4-.6-5.2-1.9-1.2-1.3-1.8-3.2-1.8-5.7v-16.3H194v-2.2l3.9-.2.3-6.4 2.6-.3v6.7h7.5v2.3l-7.6.3zm29.1 23.4l-.2-1.8c-2.8 1.6-5.7 2.4-8.4 2.4-2.5 0-4.6-.7-6.1-2.1-1.5-1.4-2.2-3.3-2.2-5.7 0-2.5.8-4.5 2.5-5.8 1.7-1.3 4.1-2 7.4-2 2 0 4.2.2 6.7.7v-3.5c0-4.2-2.3-6.4-7-6.4-1.2 0-2.6.2-4 .5-1.5.3-2.8.8-4 1.3v-2.4c1.2-.6 2.6-1 4.1-1.4 1.5-.3 3-.5 4.4-.5 3.1 0 5.5.8 7.1 2.3 1.6 1.5 2.4 3.7 2.4 6.6v17.4l-2.7.4zm-8-1.8c1.2 0 2.5-.2 3.8-.6 1.3-.4 2.6-.9 3.8-1.5v-8.2c-2.1-.4-4.1-.6-6.2-.6-2.5 0-4.4.4-5.6 1.3-1.2.9-1.7 2.3-1.7 4.2 0 3.7 2 5.4 5.9 5.4zm19.2 1.7v-38.3l3-.4v38.7h-3zm38.4.8c-4.6 0-8.1-1.6-10.5-4.8-2.5-3.2-3.7-7.8-3.7-13.8 0-6 1.2-10.5 3.7-13.8 2.5-3.2 6-4.8 10.5-4.8 4.6 0 8.1 1.6 10.5 4.8 2.5 3.2 3.7 7.8 3.7 13.8 0 6-1.2 10.5-3.7 13.8-2.4 3.2-6 4.8-10.5 4.8zm0-2.6c7.3 0 10.9-5.3 10.9-16s-3.6-16-10.9-16-10.9 5.3-10.9 16c0 10.6 3.6 16 10.9 16zm38.8 1.8v-17.7c0-4.2-2.1-6.3-6.2-6.3-1.1 0-2.3.2-3.6.6-1.3.4-2.6.9-3.9 1.5v21.9h-3v-25.5l2.5-.3.2 1.8c2.9-1.6 5.7-2.5 8.4-2.5s4.8.7 6.2 2.1c1.5 1.4 2.2 3.5 2.2 6.1v18.2l-2.8.1zm29.3-.9c-2.3 1.1-4.7 1.7-7.3 1.7-3.8 0-6.7-1.2-8.8-3.5-2-2.3-3.1-5.6-3.1-9.9 0-4.3 1-7.6 2.9-10.1 1.9-2.4 4.6-3.7 7.9-3.7 2.9 0 5.3.9 7 2.8s2.6 4.5 2.6 7.7c0 1.2-.1 2.4-.3 3.5h-17.1c0 7.1 3.1 10.6 9.2 10.6 2.5 0 4.8-.5 7.1-1.6l-.1 2.5zm-8.5-23.1c-2.2 0-4.1.9-5.5 2.5-1.4 1.7-2.2 4-2.3 6.8h14.5c.1-.5.1-1 .1-1.4 0-2.5-.6-4.5-1.8-5.9s-2.8-2-5-2zM102.7 252.6v-49.5c5.2-1.1 9.9-1.6 14.1-1.6 7.6 0 13.4 2.2 17.5 6.7s6.2 10.7 6.2 18.8c0 8.3-2.1 14.6-6.2 19s-10.1 6.6-17.9 6.6h-13.7zm13.7-5.8c5.6 0 9.8-1.6 12.6-4.9 2.8-3.2 4.2-8.2 4.2-14.8 0-6.7-1.4-11.7-4.1-15-2.7-3.2-6.9-4.9-12.5-4.9-2.2 0-4.6.2-7.2.6v38.8h7zm42.4 5.8V202h6.8v50.5h-6.8zm62.4-2.1c-4.3 2.1-9.1 3.2-14.3 3.2-7.3 0-12.9-2.3-16.9-6.9-4-4.6-6-11.1-6-19.4 0-5.5.9-10.3 2.8-14.3s4.5-7 7.9-9c3.4-2 7.4-3.1 12.1-3.1 4.9 0 9.4 1.1 13.7 3.2v5.7c-4.3-2.1-8.6-3.1-12.9-3.1-5.3 0-9.3 1.7-12.1 5.2-2.7 3.5-4.1 8.6-4.1 15.3 0 6.8 1.4 11.9 4.1 15.4 2.8 3.5 6.8 5.2 12.2 5.2 2.5 0 4.9-.3 7.1-.9v-15.8h-5.6l.8-5.7h11.3v25zm18.4 2.1V202h6.8v50.5h-6.8zm36.6 0v-44.8h-14.4V202h35.7v5.8h-14.4v44.8h-6.9zm62.7 0l-4.1-12.5h-20.2l-4 12.5h-7l17.1-50.5h8.1l17.1 50.5h-7zm-22.6-17.9H333l-8.4-26.1-8.3 26.1zm44.4 17.9V202h6.8v44.8h22.7v5.8h-29.5zm-258 78.5v-50.5h29.9v5.8h-23.1v17.3h20.1v5.8h-20.1v21.7l-6.8-.1zm42.9-25.2c0-8.5 1.8-15 5.4-19.6 3.6-4.5 8.8-6.8 15.5-6.8 6.8 0 11.9 2.3 15.5 6.8 3.6 4.5 5.4 11.1 5.4 19.6s-1.8 15-5.4 19.6c-3.6 4.5-8.8 6.8-15.5 6.8-6.7 0-11.9-2.3-15.5-6.8-3.6-4.6-5.4-11.1-5.4-19.6zm7.3 0c0 6.9 1.1 12.1 3.3 15.5 2.2 3.4 5.7 5.1 10.3 5.1s8.1-1.7 10.3-5.1 3.3-8.6 3.3-15.5-1.1-12.1-3.3-15.5c-2.2-3.4-5.7-5.1-10.3-5.1-4.6 0-8.1 1.7-10.3 5.1-2.2 3.4-3.3 8.5-3.3 15.5zm80.4 25.2l-12-20h-8.9v20h-6.7v-49.5c2.2-.5 4.7-.9 7.4-1.2 2.7-.3 5.1-.4 7.1-.4 5.7 0 10.2 1.4 13.5 4.2 3.3 2.8 4.9 6.6 4.9 11.5 0 3.5-.9 6.5-2.8 9s-4.5 4.2-7.9 5.3l13.4 21.2h-8zm-13.5-45.6c-2.2 0-4.7.2-7.4.7v19.5h7.2c3.8 0 6.8-.9 8.9-2.6s3.1-4.2 3.1-7.4c0-3.3-1-5.9-3-7.6-2-1.7-4.9-2.6-8.8-2.6zm82 43.5c-4.3 2.1-9.1 3.2-14.3 3.2-7.3 0-12.9-2.3-16.9-6.9-4-4.6-6-11.1-6-19.4 0-5.5.9-10.3 2.8-14.3s4.5-7 7.9-9c3.4-2 7.4-3.1 12.1-3.1 4.9 0 9.4 1.1 13.7 3.2v5.7c-4.3-2.1-8.6-3.1-12.9-3.1-5.3 0-9.3 1.7-12.1 5.2-2.7 3.5-4.1 8.6-4.1 15.3 0 6.8 1.4 11.9 4.1 15.4 2.8 3.5 6.8 5.2 12.2 5.2 2.5 0 4.9-.3 7.1-.9v-15.8h-5.6l.8-5.7h11.3v25zm16.1-23.1c0-8.5 1.8-15 5.4-19.6 3.6-4.5 8.8-6.8 15.5-6.8s11.9 2.3 15.5 6.8c3.6 4.5 5.4 11.1 5.4 19.6s-1.8 15-5.4 19.6c-3.6 4.5-8.8 6.8-15.5 6.8-6.7 0-11.9-2.3-15.5-6.8-3.6-4.6-5.4-11.1-5.4-19.6zm7.2 0c0 6.9 1.1 12.1 3.3 15.5 2.2 3.4 5.7 5.1 10.3 5.1 4.6 0 8.1-1.7 10.3-5.1 2.2-3.4 3.3-8.6 3.3-15.5s-1.1-12.1-3.3-15.5c-2.2-3.4-5.7-5.1-10.3-5.1-4.6 0-8.1 1.7-10.3 5.1-2.1 3.4-3.3 8.5-3.3 15.5zm50.5 0c0-8.5 1.8-15 5.4-19.6 3.6-4.5 8.8-6.8 15.5-6.8s11.9 2.3 15.5 6.8c3.6 4.5 5.4 11.1 5.4 19.6s-1.8 15-5.4 19.6c-3.6 4.5-8.8 6.8-15.5 6.8-6.7 0-11.9-2.3-15.5-6.8-3.6-4.6-5.4-11.1-5.4-19.6zm7.3 0c0 6.9 1.1 12.1 3.3 15.5 2.2 3.4 5.7 5.1 10.3 5.1 4.6 0 8.1-1.7 10.3-5.1 2.2-3.4 3.3-8.6 3.3-15.5s-1.1-12.1-3.3-15.5c-2.2-3.4-5.7-5.1-10.3-5.1-4.6 0-8.1 1.7-10.3 5.1-2.2 3.4-3.3 8.5-3.3 15.5zm52.8 25.2v-49.5c5.2-1.1 9.9-1.6 14.1-1.6 7.6 0 13.4 2.2 17.5 6.7s6.2 10.7 6.2 18.8c0 8.3-2.1 14.6-6.2 19s-10.1 6.6-17.9 6.6h-13.7zm13.7-5.7c5.6 0 9.8-1.6 12.6-4.9s4.2-8.2 4.2-14.8c0-6.7-1.4-11.7-4.1-15-2.7-3.2-6.9-4.9-12.5-4.9-2.2 0-4.6.2-7.2.6v38.8h7zm33.6-31.9v-9.7h-3.2v-1.1h7.6v1.1h-3.2v9.7H483zm15.3 0l-.6-8.8-3 7.7h-1.1l-3-7.7-.5 8.8h-1.2l.8-10.7h1.5l3.1 8.1 3.1-8.1h1.4l.8 10.7h-1.3zM117.7 431.6h1.7v19.6h-1.7l-10.5-16.7v16.7h-1.7v-19.6h1.7l10.5 16.7v-16.7zm12.1 20c-2 0-3.6-.6-4.6-1.9-1-1.3-1.6-3.1-1.6-5.6 0-2.4.5-4.3 1.6-5.6 1-1.3 2.6-1.9 4.6-1.9 2 0 3.6.6 4.6 1.9 1 1.3 1.6 3.1 1.6 5.6 0 2.5-.5 4.3-1.6 5.6s-2.6 1.9-4.6 1.9zm0-1.3c1.5 0 2.6-.5 3.3-1.5.7-1 1.1-2.5 1.1-4.7 0-2.1-.4-3.7-1.1-4.6-.7-1-1.8-1.5-3.3-1.5s-2.6.5-3.3 1.5c-.7 1-1 2.5-1 4.6 0 2.1.3 3.7 1 4.7.6 1 1.7 1.5 3.3 1.5zm12.8.9l-5.3-14.1h1.8l4.4 12.3 4.5-12.3h1.7l-5.4 14.1h-1.7zm19.3-.5c-1.3.6-2.7.9-4.1.9-2.1 0-3.8-.6-5-1.9s-1.7-3.1-1.7-5.5.5-4.2 1.6-5.5c1.1-1.3 2.6-2 4.5-2 1.7 0 3 .5 3.9 1.6 1 1 1.4 2.5 1.4 4.2 0 .7-.1 1.3-.2 1.9h-9.6c0 3.9 1.7 5.9 5.2 5.9 1.4 0 2.7-.3 4-.9v1.3zm-4.8-12.7c-1.3 0-2.3.5-3.1 1.4-.8.9-1.2 2.2-1.3 3.8h8.2c0-.3.1-.6.1-.8 0-1.4-.3-2.5-1-3.2-.8-.8-1.7-1.2-2.9-1.2zm26 13.2v-10c0-2.1-1-3.2-3-3.2-1.2 0-2.5.4-4 1.3.1.5.2 1 .2 1.6v10.3h-1.7v-10c0-2.1-1-3.2-3-3.2-1.1 0-2.4.4-3.8 1.1v12h-1.7v-14l1.4-.1.1 1c1.6-.9 3-1.3 4.3-1.3 1.6 0 2.8.5 3.6 1.6 1.8-1.1 3.4-1.6 4.9-1.6 1.4 0 2.4.4 3.2 1.1.7.7 1.1 1.8 1.1 3.1v10.3h-1.6zm7.9-13.3c.7-.4 1.4-.7 2.2-.9.7-.2 1.4-.3 2.1-.3 1.8 0 3.3.6 4.3 1.9 1 1.3 1.6 3 1.6 5.3 0 2.5-.6 4.4-1.8 5.7-1.2 1.3-2.9 2-5.1 2-1.6 0-3.2-.3-4.9-.8v-20.7l1.7-.2v8zm4 .1c-.6 0-1.3.1-2 .3-.7.2-1.4.5-2 .8v10.6c1 .3 2 .4 3.1.4 1.8 0 3.1-.5 4-1.6s1.3-2.6 1.3-4.8c0-1.9-.4-3.4-1.1-4.4s-1.9-1.3-3.3-1.3zm19.8 12.7c-1.3.6-2.7.9-4.1.9-2.1 0-3.8-.6-5-1.9s-1.7-3.1-1.7-5.5.5-4.2 1.6-5.5c1.1-1.3 2.6-2 4.5-2 1.7 0 3 .5 3.9 1.6 1 1 1.4 2.5 1.4 4.2 0 .7-.1 1.3-.2 1.9h-9.6c0 3.9 1.7 5.9 5.2 5.9 1.4 0 2.7-.3 4-.9v1.3zM210 438c-1.3 0-2.3.5-3.1 1.4-.8.9-1.2 2.2-1.3 3.8h8.2c0-.3.1-.6.1-.8 0-1.4-.3-2.5-1-3.2-.8-.8-1.7-1.2-2.9-1.2zm9.1 13.2v-14l1.4-.1.1 1.3c1.2-1 2.6-1.5 4-1.5.5 0 .9.1 1.2.2v1.4c-.5-.1-.9-.2-1.3-.2-1.3 0-2.6.5-3.8 1.4v11.6h-1.6zm19.9 0v-17.4l-4.8 3.2-.4-1.4 5.5-3.6h1.4v19.2H239zm4.9-2.2c1.6.8 3.3 1.2 5.1 1.2 1.6 0 2.8-.4 3.8-1.1s1.4-1.8 1.4-3.1-.4-2.3-1.3-3.1c-.9-.8-2.1-1.1-3.6-1.1h-1.7v-1.3h1.6c1.3 0 2.4-.3 3.2-1s1.2-1.6 1.2-2.7c0-1.2-.4-2.1-1.2-2.8s-1.9-1-3.3-1c-1.5 0-3 .3-4.4.9v-1.3c1.3-.6 2.9-.9 4.5-.9 1.8 0 3.3.5 4.4 1.4 1.1.9 1.7 2.1 1.7 3.6 0 1.1-.3 2-.9 2.8-.6.8-1.5 1.3-2.6 1.7 1.3.3 2.3.9 3 1.8.7.9 1.1 1.9 1.1 3.2 0 1.1-.3 2.1-.9 2.9s-1.4 1.5-2.4 1.9-2.2.7-3.5.7c-.9 0-1.8-.1-2.7-.3-.9-.2-1.7-.5-2.3-.8l-.2-1.6zm14.9-4.2v-1.5h7.3v1.5h-7.3zm13.8 6.4v-17.4l-4.8 3.2-.4-1.4 5.5-3.6h1.4v19.2h-1.7zm14.6-19.2c1 0 1.8 0 2.4-.1v1.5h-8.2l-.7 6.7c.5-.2 1-.4 1.7-.6.7-.1 1.4-.2 2-.2 1.8 0 3.3.5 4.4 1.6 1.1 1.1 1.6 2.5 1.6 4.3 0 1.3-.3 2.4-.9 3.4s-1.4 1.7-2.4 2.2c-1 .5-2.2.8-3.6.8-.9 0-1.8-.1-2.7-.3-.9-.2-1.7-.5-2.3-.8l-.3-1.5c1.6.8 3.3 1.2 5.1 1.2 1.7 0 3-.4 3.9-1.3.9-.9 1.4-2.1 1.4-3.7 0-1.5-.4-2.6-1.2-3.4-.8-.8-2-1.2-3.5-1.2-.7 0-1.4.1-2.2.3-.7.2-1.3.4-1.8.8l-.9-.6.9-9.1h7.3zm5.4 23.4c.5-.7.9-1.3 1.2-2.1.3-.7.5-1.4.5-2.1-.3-.1-.5-.2-.6-.4-.2-.2-.2-.5-.2-.8 0-.4.1-.7.4-.9.2-.2.6-.3.9-.3.4 0 .7.1 1 .4.2.3.3.7.3 1.2 0 .8-.3 1.8-.8 2.8-.5 1-1.2 1.9-2 2.6l-.7-.4zm12.7-4.2c.1-1.7.5-3.2 1.3-4.5.7-1.3 1.9-2.6 3.4-3.9l2.5-2c1-.8 1.7-1.6 2.1-2.2.4-.6.6-1.3.6-2 0-1.1-.4-2-1.2-2.7-.8-.7-1.9-1-3.2-1-.9 0-1.7.1-2.5.4-.8.3-1.6.7-2.4 1.3v-1.4c1.6-1.1 3.4-1.7 5.3-1.7 1.7 0 3.1.5 4.1 1.4 1.1.9 1.6 2.1 1.6 3.6 0 .6-.1 1.2-.3 1.7-.2.5-.5 1.1-1 1.6s-1.1 1.2-2 1.9l-2.4 2c-1.2 1-2.1 2-2.8 3-.7 1-1.1 2-1.2 3.1h7.8c1 0 1.8 0 2.4-.1v1.5h-12.1zm21.6.4c-2.2 0-3.9-.8-5-2.5s-1.7-4.2-1.7-7.5.6-5.8 1.7-7.5c1.1-1.7 2.8-2.5 5-2.5s3.9.8 5 2.5 1.7 4.2 1.7 7.5-.6 5.8-1.7 7.5c-1.1 1.7-2.8 2.5-5 2.5zm0-1.3c1.7 0 2.9-.7 3.8-2.1.8-1.4 1.2-3.6 1.2-6.5s-.4-5.1-1.2-6.5c-.8-1.4-2.1-2.1-3.8-2.1-1.7 0-2.9.7-3.8 2.1-.8 1.4-1.2 3.6-1.2 6.5s.4 5.1 1.2 6.5c.8 1.3 2.1 2.1 3.8 2.1zm9.1.9c.1-1.7.5-3.2 1.3-4.5.7-1.3 1.9-2.6 3.4-3.9l2.5-2c1-.8 1.7-1.6 2.1-2.2.4-.6.6-1.3.6-2 0-1.1-.4-2-1.2-2.7-.8-.7-1.9-1-3.2-1-.9 0-1.7.1-2.5.4-.8.3-1.6.7-2.4 1.3v-1.4c1.6-1.1 3.4-1.7 5.3-1.7 1.7 0 3.1.5 4.1 1.4 1.1.9 1.6 2.1 1.6 3.6 0 .6-.1 1.2-.3 1.7-.2.5-.5 1.1-1 1.6s-1.1 1.2-2 1.9l-2.4 2c-1.2 1-2.1 2-2.8 3-.7 1-1.1 2-1.2 3.1h7.8c1 0 1.8 0 2.4-.1v1.5H336zm21.6.4c-2.2 0-3.9-.8-5-2.5s-1.7-4.2-1.7-7.5.6-5.8 1.7-7.5c1.1-1.7 2.8-2.5 5-2.5s3.9.8 5 2.5 1.7 4.2 1.7 7.5-.6 5.8-1.7 7.5c-1.1 1.7-2.8 2.5-5 2.5zm0-1.3c1.7 0 2.9-.7 3.8-2.1.8-1.4 1.2-3.6 1.2-6.5s-.4-5.1-1.2-6.5c-.8-1.4-2.1-2.1-3.8-2.1-1.7 0-2.9.7-3.8 2.1-.8 1.4-1.2 3.6-1.2 6.5s.4 5.1 1.2 6.5c.9 1.3 2.1 2.1 3.8 2.1zm-247.7 42.9l-6.9-19.6h1.9l6 17.8 6-17.8h1.8l-6.9 19.6h-1.9zm12.2-17.5c-.4 0-.7-.1-.9-.3s-.4-.5-.4-.9.1-.7.4-.9c.2-.2.5-.3.9-.3s.7.1.9.3c.2.2.4.5.4.9s-.1.7-.4.9-.5.3-.9.3zm-.8 17.5v-13.9l1.7-.2v14.2h-1.7zm6.4 0v-14l1.4-.1.1 1.3c1.2-1 2.6-1.5 4-1.5.5 0 .9.1 1.2.2v1.4c-.5-.1-.9-.2-1.3-.2-1.3 0-2.6.5-3.8 1.4v11.6h-1.6zm11.7-12.8v9c0 1 .2 1.7.6 2.1.4.5 1 .7 1.9.7.6 0 1.2-.1 1.9-.3v1.2c-.8.3-1.5.4-2.2.4-1.3 0-2.3-.3-2.9-1s-1-1.7-1-3.1v-8.9h-2.1v-1.2l2.2-.1.2-3.5 1.5-.2v3.7h4.2v1.3h-4.3zm8.8-1.3v9.7c0 2.3 1.1 3.4 3.4 3.4.6 0 1.3-.1 2-.3.7-.2 1.5-.5 2.2-.8v-12h1.7v14l-1.4.1-.1-1c-1.6.9-3.2 1.3-4.8 1.3-1.5 0-2.6-.4-3.4-1.2-.8-.8-1.2-1.9-1.2-3.3v-10h1.6zm22.6 14.1l-.1-1c-1.6.9-3.2 1.3-4.8 1.3-1.4 0-2.6-.4-3.4-1.1-.8-.8-1.3-1.8-1.3-3.1 0-1.4.5-2.5 1.4-3.2s2.3-1.1 4.2-1.1c1.1 0 2.4.1 3.8.4v-1.9c0-2.3-1.3-3.5-3.9-3.5-.7 0-1.4.1-2.3.3s-1.6.4-2.3.7v-1.3c.7-.3 1.4-.6 2.3-.8s1.7-.3 2.5-.3c1.8 0 3.1.4 4 1.2.9.8 1.4 2 1.4 3.6v9.6l-1.5.2zm-4.5-.9c.7 0 1.4-.1 2.1-.3.7-.2 1.5-.5 2.1-.8v-4.5c-1.2-.2-2.3-.3-3.5-.3-1.4 0-2.5.2-3.1.7s-1 1.3-1 2.3c.1 1.9 1.2 2.9 3.4 2.9zm10.4.9v-21l1.7-.2v21.3h-1.7zm15.6-9.3v7.8h9.5v1.4h-11.3v-19.6h11.3v1.4h-9.5v7.5h8.3v1.4h-8.3zm15.9 9.3l-5.3-14.1h1.8l4.4 12.3 4.5-12.3h1.7l-5.4 14.1h-1.7zm19.3-.5c-1.3.6-2.7.9-4.1.9-2.1 0-3.8-.6-5-1.9-1.2-1.3-1.7-3.1-1.7-5.5s.5-4.2 1.6-5.5c1.1-1.3 2.6-2 4.5-2 1.7 0 3 .5 3.9 1.6 1 1 1.4 2.5 1.4 4.2 0 .7-.1 1.3-.2 1.9h-9.6c0 3.9 1.7 5.9 5.2 5.9 1.4 0 2.7-.3 4-.9v1.3zm-4.8-12.7c-1.3 0-2.3.5-3.1 1.4-.8.9-1.2 2.2-1.3 3.8h8.2c0-.3.1-.6.1-.8 0-1.4-.3-2.5-1-3.2s-1.7-1.2-2.9-1.2zm18.6 13.2v-9.7c0-2.3-1.2-3.4-3.5-3.4-.6 0-1.3.1-2 .3-.7.2-1.5.5-2.2.8v12h-1.7v-14l1.4-.1.1 1c1.6-.9 3.2-1.3 4.8-1.3 1.5 0 2.7.4 3.5 1.2.8.8 1.2 1.9 1.2 3.3v10h-1.6zm8.2-12.8v9c0 1 .2 1.7.6 2.1.4.5 1 .7 1.9.7.6 0 1.2-.1 1.9-.3v1.2c-.8.3-1.5.4-2.2.4-1.3 0-2.3-.3-2.9-1s-1-1.7-1-3.1v-8.9h-2.1v-1.2l2.2-.1.2-3.5 1.5-.2v3.7h4.2v1.3h-4.3z" fill="#fff"/></svg>